Coordinates
version=1
nRows=4
nColumns=107
inDegrees=yes

Units are S.I. units (second, meters, Newtons, ...)
If the header above contains a line with 'inDegrees', this indicates whether rotational values are in degrees (yes) or radians (no).

endheader
time	sternoclavicular_r2	sternoclavicular_r3	unrotscap_r3	unrotscap_r2	acromioclavicular_r2	acromioclavicular_r3	acromioclavicular_r1	unrothum_r1	unrothum_r3	unrothum_r2	elv_angle	shoulder_elv	shoulder1_r2	shoulder_rot	elbow_flexion	pro_sup	deviation	flexion	proximal_distal_r1	proximal_distal_r3	cmc_flexion	cmc_abduction	mp_flexion	ip_flexion	mcp2_flexion	mcp2_abduction	pm2_flexion	md2_flexion	mcp3_flexion	mcp3_abduction	pm3_flexion	md3_flexion	mcp4_flexion	mcp4_abduction	pm4_flexion	md4_flexion	mcp5_flexion	mcp5_abduction	pm5_flexion	md5_flexion	bicpt_tx	bicpt_ty	bicpt_tz	bicpt2_tx	bicpt2_ty	bicpt2_tz	ptpt_tx	ptpt_ty	ptpt_tz	FCUpt_tx	FCUpt_ty	FCUpt_tz	EDCpt_tx	EDCpt_ty	EDCpt_tz	APLpt_tx	APLpt_ty	APLpt_tz	FPLpt_tx	FPLpt_ty	FPLpt_tz	FPLpt2_tx	FPLpt2_ty	FPLpt2_tz	PEC1pt2_tx	PEC1pt2_ty	PEC1pt2_tz	PEC1pt3_tx	PEC1pt3_ty	PEC1pt3_tz	PEC2pt2_tx	PEC2pt2_ty	PEC2pt2_tz	PEC2pt3_tx	PEC2pt3_ty	PEC2pt3_tz	PEC3pt2_tx	PEC3pt2_ty	PEC3pt2_tz	PEC3pt3_tx	PEC3pt3_ty	PEC3pt3_tz	DELT2pt2a_tx	DELT2pt2a_ty	DELT2pt2a_tz	DELT2pt2_tx	DELT2pt2_ty	DELT2pt2_tz	LAT1pt2_tx	LAT1pt2_ty	LAT1pt2_tz	LAT1pt3_tx	LAT1pt3_ty	LAT1pt3_tz	LAT2pt2_tx	LAT2pt2_ty	LAT2pt2_tz	LAT2pt3_tx	LAT2pt3_ty	LAT2pt3_tz	LAT3pt2_tx	LAT3pt2_ty	LAT3pt2_tz	LAT3pt3_tx	LAT3pt3_ty	LAT3pt3_tz
      0.53333333	     -0.32152581	      0.13618316	     -0.13618316	      0.32152581	     -0.06510244	      0.52613498	      0.23649405	     -0.23649405	     -0.52613498	      0.06510244	     99.23121699	     76.12409241	     -1.73191146	    -22.20949700	     27.95136862	     19.57473553	     -0.00560750	     -1.00556084	     -0.00763583	     -0.50278042	     -3.79086995	      1.40948982	    -30.61152133	    -28.17918175	      8.90684907	     12.26697696	     31.79938168	     21.32327294	     57.29108771	      9.25010412	     86.83019928	     70.15519800	     62.75483299	     -8.60669571	     94.68438006	     32.06925326	     17.33092803	    -13.21884764	    -13.23570800	      4.95491160	      0.00082454	     -0.03080365	     -0.00481602	      0.01605905	     -0.01779313	     -0.00935800	      0.00610365	     -0.06583524	     -0.00162685	      0.00578823	     -0.18386073	     -0.00008434	     -0.00234896	      0.00061375	      0.00018000	      0.00018204	      0.00007282	      0.00036408	      0.00023301	      0.00069903	      0.00039321	     -0.00022985	      0.00010275	      0.00012329	      0.00249518	      0.00875428	      0.00608993	     -0.00816220	      0.01970770	     -0.01869271	      0.00249518	      0.00875428	      0.00608993	      0.00054979	      0.01826980	     -0.00960010	      0.00394632	      0.00486814	      0.01596367	      0.00000000	      0.00774979	      0.00000000	     -0.00714721	     -0.03302943	     -0.00638989	      0.01501860	     -0.00050075	     -0.00410310	     -0.00088812	      0.01488650	     -0.00608993	      0.00245289	      0.02148393	     -0.01776230	     -0.00596306	      0.01289882	     -0.00545556	     -0.01243361	      0.02723553	     -0.03049195	     -0.02334474	      0.01442130	     -0.00731638	     -0.01547858	      0.03146465	     -0.03810437
      0.56666667	     -0.32162866	      0.13622672	     -0.13622672	      0.32162866	     -0.06512326	      0.52630329	      0.23656971	     -0.23656971	     -0.52630329	      0.06512326	     99.22201775	     76.14844401	     -1.73175090	    -22.22230150	     27.95060832	     19.56913654	     -0.00556343	     -1.00559307	     -0.00757569	     -0.50279654	     -3.79047192	      1.40952662	    -30.61144934	    -28.17912576	      8.89768614	     12.26607465	     31.79726617	     21.32210717	     57.29107973	      9.25017366	     86.83006674	     70.15508965	     62.75488294	     -8.60674064	     94.68428627	     32.06914392	     17.33033098	    -13.21952684	    -13.23614872	      4.95489125	      0.00082452	     -0.03080357	     -0.00481601	      0.01605876	     -0.01779292	     -0.00935842	      0.00610406	     -0.06583497	     -0.00162640	      0.00578770	     -0.18386081	     -0.00008421	     -0.00234829	      0.00061355	      0.00017998	      0.00018202	      0.00007281	      0.00036403	      0.00023298	      0.00069894	      0.00039316	     -0.00023001	      0.00010274	      0.00012329	      0.00249598	      0.00875708	      0.00609188	     -0.00816481	      0.01971400	     -0.01869869	      0.00249598	      0.00875708	      0.00609188	      0.00054996	      0.01827564	     -0.00960317	      0.00394724	      0.00486970	      0.01596593	      0.00000000	      0.00775479	      0.00000000	     -0.00714950	     -0.03303999	     -0.00639404	      0.01502561	     -0.00050115	     -0.00410798	     -0.00088840	      0.01489126	     -0.00609188	      0.00245367	      0.02149080	     -0.01776799	     -0.00596497	      0.01290294	     -0.00545731	     -0.01243759	      0.02724424	     -0.03050171	     -0.02335221	      0.01442591	     -0.00731872	     -0.01548353	      0.03147472	     -0.03811656
      0.60000000	     -0.32081538	      0.13588225	     -0.13588225	      0.32081538	     -0.06495859	      0.52497247	      0.23597151	     -0.23597151	     -0.52497247	      0.06495859	     99.42410297	     75.95589329	     -1.73527795	    -23.15732257	     27.96850430	     20.51233744	      0.00120671	     -0.98750929	      0.00163650	     -0.49375464	     -3.43317106	      1.02743338	    -30.55450297	    -29.29637352	      6.96143759	     12.13048827	     30.91326539	     19.45126647	     57.39245480	      9.63655382	     86.80545147	     70.96866951	     62.88870616	     -8.29180354	     94.42787390	     32.92581648	     17.03572667	    -13.19688151	    -12.95526901	      4.94427638	      0.00082511	     -0.03080562	     -0.00481634	      0.01610365	     -0.01779778	     -0.00928417	      0.00603437	     -0.06588003	     -0.00170238	      0.00587684	     -0.18384654	     -0.00010510	     -0.00246147	      0.00064610	      0.00018342	      0.00019370	      0.00007748	      0.00038741	      0.00024794	      0.00074383	      0.00041840	     -0.00019657	      0.00009236	      0.00011084	      0.00248967	      0.00873494	      0.00607648	     -0.00814417	      0.01966415	     -0.01865141	      0.00248967	      0.00873494	      0.00607648	      0.00054857	      0.01822943	     -0.00957889	      0.00393994	      0.00485739	      0.01594805	      0.00000000	      0.00771535	      0.00000000	     -0.00713142	     -0.03295645	     -0.00636130	      0.01553153	     -0.00053083	     -0.00447105	     -0.00088615	      0.01485361	     -0.00607648	      0.00244747	      0.02143646	     -0.01772306	     -0.00594988	      0.01287032	     -0.00544351	     -0.01240614	      0.02717535	     -0.03042458	     -0.02329316	      0.01438943	     -0.00730021	     -0.01544438	      0.03139513	     -0.03802018
      0.63333333	     -0.32090123	      0.13591861	     -0.13591861	      0.32090123	     -0.06497597	      0.52511294	      0.23603465	     -0.23603465	     -0.52511294	      0.06497597	     99.41472593	     75.97621763	     -1.73511429	    -23.16936835	     27.96597698	     20.50672143	      0.00124879	     -0.98753967	      0.00169351	     -0.49376983	     -3.43300302	      1.02754792	    -30.55432161	    -29.29611713	      6.95264134	     12.12939615	     30.91099379	     19.44987414	     57.39256052	      9.63654010	     86.80536628	     70.96841047	     62.88843981	     -8.29193317	     94.42732997	     32.92554305	     17.03557113	    -13.19753988	    -12.95573052	      4.94425713	      0.00082503	     -0.03080533	     -0.00481629	      0.01610333	     -0.01779709	     -0.00928458	      0.00603478	     -0.06587976	     -0.00170193	      0.00587632	     -0.18384662	     -0.00010496	     -0.00246080	      0.00064592	      0.00018339	      0.00019368	      0.00007747	      0.00038736	      0.00024791	      0.00074373	      0.00041835	     -0.00019682	      0.00009237	      0.00011085	      0.00249033	      0.00873727	      0.00607810	     -0.00814635	      0.01966942	     -0.01865640	      0.00249033	      0.00873727	      0.00607810	      0.00054872	      0.01823431	     -0.00958145	      0.00394071	      0.00485869	      0.01594995	      0.00000000	      0.00771951	      0.00000000	     -0.00713333	     -0.03296526	     -0.00636475	      0.01553797	     -0.00053122	     -0.00447581	     -0.00088639	      0.01485758	     -0.00607810	      0.00244812	      0.02144220	     -0.01772780	     -0.00595148	      0.01287376	     -0.00544497	     -0.01240946	      0.02718263	     -0.03043272	     -0.02329939	      0.01439328	     -0.00730216	     -0.01544851	      0.03140353	     -0.03803035
